<svg width="38" height="38" viewBox="0 0 38 38" fill="none" xmlns="http://www.w3.org/2000/svg">
<g clip-path="url(#clip0_1518_9234)">
<path d="M16.5007 6.16675V10.5001H14.3341L18.6674 14.8334L23.0007 10.5001H20.8341V6.16675H16.5007ZM6.75073 8.33341V10.5001H8.9174L12.8174 18.7226L11.3549 21.3767C11.1816 21.6801 11.0841 22.0376 11.0841 22.4167C11.0841 22.9914 11.3123 23.5425 11.7187 23.9488C12.125 24.3551 12.6761 24.5834 13.2507 24.5834H26.2507V22.4167H13.7057C13.5649 22.4167 13.4349 22.2976 13.4349 22.1459L13.4674 22.0159L14.4424 20.2501H22.5132C23.3257 20.2501 24.0407 19.8059 24.4091 19.1342L28.5907 11.5401L26.7057 10.5001H26.6949L25.5032 12.6667L22.5132 18.0834H14.9082L14.7674 17.7909L12.3407 12.6667L11.3116 10.5001L10.2932 8.33341H6.75073ZM13.2507 25.6667C12.6761 25.6667 12.125 25.895 11.7187 26.3014C11.3123 26.7077 11.0841 27.2588 11.0841 27.8334C11.0841 28.4081 11.3123 28.9592 11.7187 29.3655C12.125 29.7718 12.6761 30.0001 13.2507 30.0001C13.8254 30.0001 14.3765 29.7718 14.7828 29.3655C15.1891 28.9592 15.4174 28.4081 15.4174 27.8334C15.4174 27.2588 15.1891 26.7077 14.7828 26.3014C14.3765 25.895 13.8254 25.6667 13.2507 25.6667ZM24.0841 25.6667C23.5094 25.6667 22.9583 25.895 22.552 26.3014C22.1457 26.7077 21.9174 27.2588 21.9174 27.8334C21.9174 28.4081 22.1457 28.9592 22.552 29.3655C22.9583 29.7718 23.5094 30.0001 24.0841 30.0001C24.6587 30.0001 25.2098 29.7718 25.6161 29.3655C26.0225 28.9592 26.2507 28.4081 26.2507 27.8334C26.2507 27.2588 26.0225 26.7077 25.6161 26.3014C25.2098 25.895 24.6587 25.6667 24.0841 25.6667Z" fill="white"/>
<path d="M16.5001 6.16675V10.5001H14.3334L18.6667 14.8334L23.0001 10.5001H20.8334V6.16675H16.5001ZM13.2501 25.6667C12.6754 25.6667 12.1243 25.895 11.718 26.3014C11.3117 26.7077 11.0834 27.2588 11.0834 27.8334C11.0834 28.4081 11.3117 28.9592 11.718 29.3655C12.1243 29.7718 12.6754 30.0001 13.2501 30.0001C13.8247 30.0001 14.3758 29.7718 14.7821 29.3655C15.1885 28.9592 15.4167 28.4081 15.4167 27.8334C15.4167 27.2588 15.1885 26.7077 14.7821 26.3014C14.3758 25.895 13.8247 25.6667 13.2501 25.6667ZM24.0834 25.6667C23.5088 25.6667 22.9577 25.895 22.5513 26.3014C22.145 26.7077 21.9167 27.2588 21.9167 27.8334C21.9167 28.4081 22.145 28.9592 22.5513 29.3655C22.9577 29.7718 23.5088 30.0001 24.0834 30.0001C24.658 30.0001 25.2091 29.7718 25.6155 29.3655C26.0218 28.9592 26.2501 28.4081 26.2501 27.8334C26.2501 27.2588 26.0218 26.7077 25.6155 26.3014C25.2091 25.895 24.658 25.6667 24.0834 25.6667Z" fill="#00FFA4"/>
</g>
<defs>
<clipPath id="clip0_1518_9234">
<rect x="5.66675" y="6.16675" width="26" height="26" fill="white"/>
</clipPath>
</defs>
</svg>
