<svg width="27" height="27" viewBox="0 0 27 27" fill="none" xmlns="http://www.w3.org/2000/svg">
<g clip-path="url(#clip0_1521_9322)">
<path d="M11.5007 0.666626V4.99996H9.33407L13.6674 9.33329L18.0007 4.99996H15.8341V0.666626H11.5007ZM1.75073 2.83329V4.99996H3.9174L7.8174 13.2225L6.3549 15.8766C6.18157 16.18 6.08407 16.5375 6.08407 16.9166C6.08407 17.4913 6.31234 18.0424 6.71867 18.4487C7.125 18.855 7.6761 19.0833 8.25073 19.0833H21.2507V16.9166H8.70573C8.5649 16.9166 8.4349 16.7975 8.4349 16.6458L8.4674 16.5158L9.4424 14.75H17.5132C18.3257 14.75 19.0407 14.3058 19.4091 13.6341L23.5907 6.03996L21.7057 4.99996H21.6949L20.5032 7.16663L17.5132 12.5833H9.90823L9.7674 12.2908L7.34073 7.16663L6.31157 4.99996L5.29323 2.83329H1.75073ZM8.25073 20.1666C7.6761 20.1666 7.125 20.3949 6.71867 20.8012C6.31234 21.2076 6.08407 21.7587 6.08407 22.3333C6.08407 22.9079 6.31234 23.459 6.71867 23.8654C7.125 24.2717 7.6761 24.5 8.25073 24.5C8.82537 24.5 9.37647 24.2717 9.7828 23.8654C10.1891 23.459 10.4174 22.9079 10.4174 22.3333C10.4174 21.7587 10.1891 21.2076 9.7828 20.8012C9.37647 20.3949 8.82537 20.1666 8.25073 20.1666ZM19.0841 20.1666C18.5094 20.1666 17.9583 20.3949 17.552 20.8012C17.1457 21.2076 16.9174 21.7587 16.9174 22.3333C16.9174 22.9079 17.1457 23.459 17.552 23.8654C17.9583 24.2717 18.5094 24.5 19.0841 24.5C19.6587 24.5 20.2098 24.2717 20.6161 23.8654C21.0225 23.459 21.2507 22.9079 21.2507 22.3333C21.2507 21.7587 21.0225 21.2076 20.6161 20.8012C20.2098 20.3949 19.6587 20.1666 19.0841 20.1666Z" fill="#E6E9ED"/>
<path d="M11.5001 0.666626V4.99996H9.33341L13.6667 9.33329L18.0001 4.99996H15.8334V0.666626H11.5001ZM8.25008 20.1666C7.67545 20.1666 7.12435 20.3949 6.71802 20.8012C6.31169 21.2076 6.08341 21.7587 6.08341 22.3333C6.08341 22.9079 6.31169 23.459 6.71802 23.8654C7.12435 24.2717 7.67545 24.5 8.25008 24.5C8.82472 24.5 9.37582 24.2717 9.78215 23.8654C10.1885 23.459 10.4167 22.9079 10.4167 22.3333C10.4167 21.7587 10.1885 21.2076 9.78215 20.8012C9.37582 20.3949 8.82472 20.1666 8.25008 20.1666ZM19.0834 20.1666C18.5088 20.1666 17.9577 20.3949 17.5513 20.8012C17.145 21.2076 16.9167 21.7587 16.9167 22.3333C16.9167 22.9079 17.145 23.459 17.5513 23.8654C17.9577 24.2717 18.5088 24.5 19.0834 24.5C19.658 24.5 20.2091 24.2717 20.6155 23.8654C21.0218 23.459 21.2501 22.9079 21.2501 22.3333C21.2501 21.7587 21.0218 21.2076 20.6155 20.8012C20.2091 20.3949 19.658 20.1666 19.0834 20.1666Z" fill="#878D96"/>
</g>
<defs>
<clipPath id="clip0_1521_9322">
<rect x="0.666748" y="0.666626" width="26" height="26" fill="white"/>
</clipPath>
</defs>
</svg>
