<svg width="26" height="26" viewBox="0 0 26 26" fill="none" xmlns="http://www.w3.org/2000/svg">
<path d="M15.5496 24.2778C15.2506 24.2778 14.9691 24.2206 14.7052 24.1062C14.4413 23.9919 14.2126 23.838 14.0191 23.6444L9.21631 18.5514L10.0608 17.6805C10.2543 17.487 10.4742 17.3683 10.7205 17.3243C10.9668 17.2803 11.2219 17.2847 11.4858 17.3375L14.4941 17.9972V6.8611C14.4941 6.4037 14.6436 6.02546 14.9427 5.72638C15.2418 5.42731 15.62 5.27777 16.0774 5.27777C16.5348 5.27777 16.9131 5.42731 17.2121 5.72638C17.5112 6.02546 17.6608 6.4037 17.6608 6.8611V13.1944H18.6108C18.8043 13.1944 18.9714 13.2076 19.1121 13.234C19.2529 13.2604 19.4024 13.3176 19.5608 13.4055L23.8621 15.5694C24.2844 15.7805 24.601 16.0884 24.8121 16.493C25.0233 16.8977 25.0936 17.3287 25.0233 17.7861L24.3371 22.5361C24.2492 23.0463 24.0029 23.4641 23.5983 23.7896C23.1936 24.115 22.7362 24.2778 22.226 24.2778H15.5496ZM14.8635 22.6944H22.2788L23.4135 16.1236L18.5844 13.7222H17.133V7.91666C17.133 7.59999 17.0362 7.3449 16.8427 7.15138C16.6492 6.95786 16.3941 6.8611 16.0774 6.8611C15.7608 6.8611 15.5057 6.95786 15.3121 7.15138C15.1186 7.3449 15.0219 7.59999 15.0219 7.91666V18.4458L10.958 17.575L10.351 18.1819L14.8635 22.6944ZM14.8635 22.6944L10.351 18.1819L10.958 17.575L15.0219 18.4458V7.91666C15.0219 7.59999 15.1186 7.3449 15.3121 7.15138C15.5057 6.95786 15.7608 6.8611 16.0774 6.8611C16.3941 6.8611 16.6492 6.95786 16.8427 7.15138C17.0362 7.3449 17.133 7.59999 17.133 7.91666V13.7222H18.5844L23.4135 16.1236L22.2788 22.6944H14.8635Z" fill="white"/>
<path d="M5.73929 11.8311L6.71073 8.65563L4.14111 6.8172H7.31658L8.31935 3.47461L9.32213 6.8172H12.4976L9.92798 8.65563L10.8994 11.8311L8.31935 9.86732L5.73929 11.8311Z" fill="#00FFA4"/>
</svg>
