<svg width="26" height="26" viewBox="0 0 26 26" fill="none" xmlns="http://www.w3.org/2000/svg">
<path d="M14.8831 24.2778C14.5841 24.2778 14.3026 24.2206 14.0387 24.1062C13.7748 23.9919 13.5461 23.838 13.3526 23.6444L8.5498 18.5514L9.39425 17.6805C9.58777 17.487 9.80768 17.3683 10.054 17.3243C10.3003 17.2803 10.5554 17.2847 10.8192 17.3375L13.8276 17.9972V6.8611C13.8276 6.4037 13.9771 6.02546 14.2762 5.72638C14.5753 5.42731 14.9535 5.27777 15.4109 5.27777C15.8683 5.27777 16.2466 5.42731 16.5456 5.72638C16.8447 6.02546 16.9942 6.4037 16.9942 6.8611V13.1944H17.9442C18.1378 13.1944 18.3049 13.2076 18.4456 13.234C18.5864 13.2604 18.7359 13.3176 18.8942 13.4055L23.1956 15.5694C23.6179 15.7805 23.9345 16.0884 24.1456 16.493C24.3567 16.8977 24.4271 17.3287 24.3567 17.7861L23.6706 22.5361C23.5827 23.0463 23.3364 23.4641 22.9317 23.7896C22.5271 24.115 22.0697 24.2778 21.5595 24.2778H14.8831ZM14.197 22.6944H21.6123L22.747 16.1236L17.9179 13.7222H16.4665V7.91666C16.4665 7.59999 16.3697 7.3449 16.1762 7.15138C15.9827 6.95786 15.7276 6.8611 15.4109 6.8611C15.0942 6.8611 14.8392 6.95786 14.6456 7.15138C14.4521 7.3449 14.3554 7.59999 14.3554 7.91666V18.4458L10.2915 17.575L9.68453 18.1819L14.197 22.6944ZM14.197 22.6944L9.68453 18.1819L10.2915 17.575L14.3554 18.4458V7.91666C14.3554 7.59999 14.4521 7.3449 14.6456 7.15138C14.8392 6.95786 15.0942 6.8611 15.4109 6.8611C15.7276 6.8611 15.9827 6.95786 16.1762 7.15138C16.3697 7.3449 16.4665 7.59999 16.4665 7.91666V13.7222H17.9179L22.747 16.1236L21.6123 22.6944H14.197Z" fill="#CED4D9"/>
<path d="M5.07254 11.8311L6.04398 8.65563L3.47437 6.8172H6.64983L7.65261 3.47461L8.65538 6.8172H11.8308L9.26123 8.65563L10.2327 11.8311L7.65261 9.86732L5.07254 11.8311Z" fill="#878D96"/>
</svg>
