<svg width="17" height="17" viewBox="0 0 17 17" fill="none" xmlns="http://www.w3.org/2000/svg">
<path d="M3 15V2.16667C3 1.85556 3.11818 1.58333 3.35455 1.35C3.59091 1.11667 3.86667 1 4.18182 1H9.4803C9.79545 1 10.0712 1.11667 10.3076 1.35C10.5439 1.58333 10.6621 1.85556 10.6621 2.16667V7.76667H11.9424C12.2133 7.76667 12.4451 7.86187 12.638 8.05227C12.8308 8.24265 12.9273 8.47153 12.9273 8.73889V12.9972C12.9273 13.2782 13.029 13.5137 13.2326 13.7038C13.4361 13.8939 13.6823 13.9889 13.9712 13.9889C14.2601 13.9889 14.5063 13.8939 14.7098 13.7038C14.9134 13.5137 15.0152 13.2782 15.0152 12.9972V7.26111C14.8707 7.33889 14.7197 7.39722 14.5621 7.43611C14.4045 7.475 14.247 7.49444 14.0894 7.49444C13.571 7.49444 13.1328 7.31776 12.7748 6.96439C12.4169 6.61102 12.2379 6.17844 12.2379 5.66667C12.2379 5.25686 12.3561 4.88866 12.5924 4.56209C12.8288 4.23551 13.1439 4.02037 13.5379 3.91667L11.6667 2.06944L12.3758 1.38889L15.3894 4.36389C15.5732 4.54537 15.721 4.74306 15.8326 4.95694C15.9442 5.17083 16 5.40741 16 5.66667V12.9972C16 13.558 15.8042 14.032 15.4127 14.4192C15.0212 14.8064 14.5419 15 13.9748 15C13.4078 15 12.9273 14.8064 12.5333 14.4192C12.1394 14.032 11.9424 13.558 11.9424 12.9972V8.73889H10.6621V15H3ZM4.18182 6.6H9.4803V2.16667H4.18182V6.6ZM14.0894 6.52222C14.3258 6.52222 14.5293 6.43796 14.7 6.26944C14.8707 6.10093 14.9561 5.9 14.9561 5.66667C14.9561 5.43333 14.8707 5.23241 14.7 5.06389C14.5293 4.89537 14.3258 4.81111 14.0894 4.81111C13.853 4.81111 13.6495 4.89537 13.4788 5.06389C13.3081 5.23241 13.2227 5.43333 13.2227 5.66667C13.2227 5.9 13.3081 6.10093 13.4788 6.26944C13.6495 6.43796 13.853 6.52222 14.0894 6.52222Z" fill="#CFD6E3"/>
</svg>
